<svg id="uuid-15aa32b5-ba2f-4f98-a2d3-42c04805e639" data-name="Layer 1" xmlns="http://www.w3.org/2000/svg" xmlns:xlink="http://www.w3.org/1999/xlink" viewBox="0 0 912.21 1030.81">
<defs>
    <style>
    .uuid-3c2511c6-d4a3-442d-bffb-f4ca7730c535, .uuid-51eaa23c-1a65-4043-84e0-3cb0ba58de8e, .uuid-10f4b889-4a6d-4d7c-9465-2fa988e86763, .uuid-1b1daa95-a8b7-4ec9-83f6-4aee720dc47f, .uuid-03a831cc-e6cc-4b89-ad42-0209b927a186, .uuid-8ed50404-17db-4732-a242-6090554425f9 {
        stroke-width: 0px;
    }

    .uuid-3c2511c6-d4a3-442d-bffb-f4ca7730c535, .uuid-60e42287-8c6d-47bd-9907-e28cb2e543cf {
        fill: #2f2f2f;
    }

    .uuid-51eaa23c-1a65-4043-84e0-3cb0ba58de8e {
        fill: #222425;
    }

    .uuid-51eaa23c-1a65-4043-84e0-3cb0ba58de8e, .uuid-60e42287-8c6d-47bd-9907-e28cb2e543cf, .uuid-10f4b889-4a6d-4d7c-9465-2fa988e86763, .uuid-1b1daa95-a8b7-4ec9-83f6-4aee720dc47f, .uuid-b805d9f0-2387-4c15-a210-cc6552dcdd7d, .uuid-eb820bde-c831-4126-941d-fe9b9610000d, .uuid-8ed50404-17db-4732-a242-6090554425f9 {
        isolation: isolate;
    }

    .uuid-60e42287-8c6d-47bd-9907-e28cb2e543cf {
        stroke-width: 10px;
    }

    .uuid-60e42287-8c6d-47bd-9907-e28cb2e543cf, .uuid-b805d9f0-2387-4c15-a210-cc6552dcdd7d, .uuid-eb820bde-c831-4126-941d-fe9b9610000d, .uuid-f754ac35-97c8-4154-afec-45aabab21233, .uuid-be15bf49-f47f-412f-a49e-bd9d44cd29ef {
        stroke-miterlimit: 10;
    }

    .uuid-60e42287-8c6d-47bd-9907-e28cb2e543cf, .uuid-f754ac35-97c8-4154-afec-45aabab21233 {
        stroke: #2f2f2f;
    }

    .uuid-10f4b889-4a6d-4d7c-9465-2fa988e86763 {
        fill: #d5d5d5;
    }

    .uuid-1b1daa95-a8b7-4ec9-83f6-4aee720dc47f {
        fill: #f37464;
    }

    .uuid-b805d9f0-2387-4c15-a210-cc6552dcdd7d {
        fill: #fafafc;
        stroke: #111;
        stroke-width: 2px;
    }

    .uuid-03a831cc-e6cc-4b89-ad42-0209b927a186 {
        fill: #fff;
    }

    .uuid-eb820bde-c831-4126-941d-fe9b9610000d {
        fill: url(#uuid-33fdc761-cfc2-4388-89ae-ed4a34862d8b);
        stroke-width: 8px;
    }

    .uuid-eb820bde-c831-4126-941d-fe9b9610000d, .uuid-be15bf49-f47f-412f-a49e-bd9d44cd29ef {
        stroke: #303030;
    }

    .uuid-f754ac35-97c8-4154-afec-45aabab21233 {
        stroke-width: 9px;
    }

    .uuid-f754ac35-97c8-4154-afec-45aabab21233, .uuid-be15bf49-f47f-412f-a49e-bd9d44cd29ef {
        fill: none;
    }

    .uuid-8ed50404-17db-4732-a242-6090554425f9 {
        fill: #001951;
    }

    .uuid-be15bf49-f47f-412f-a49e-bd9d44cd29ef {
        stroke-width: 25px;
    }
    </style>
    <linearGradient id="uuid-33fdc761-cfc2-4388-89ae-ed4a34862d8b" x1="449.65" y1="469.49" x2="475.77" y2="1532.01" gradientUnits="userSpaceOnUse">
    <stop offset=".04" stop-color="#fff"/>
    <stop offset=".8" stop-color="#232323"/>
    </linearGradient>
</defs>
<path class="uuid-8ed50404-17db-4732-a242-6090554425f9" d="m912.21,0v577.63c0,250.28-204.2,453.18-456.1,453.18-61.42,0-120.02-12.07-173.51-33.94v-204.02c48.47,38.95,110.08,62.26,177.17,62.26,156.07,0,282.59-126.2,282.59-281.86s-126.52-281.86-282.59-281.86c-135.15,0-248.16,94.65-276,221.1-4.32,19.56-6.59,39.9-6.59,60.76v362.96C69.39,853.32,0,723.53,0,577.63,0,327.35,204.2,124.46,456.1,124.46c105.06,0,201.83,35.29,278.93,94.6V0h177.17Z"/>
<path class="uuid-03a831cc-e6cc-4b89-ad42-0209b927a186" d="m742.36,573.24c0,155.66-126.52,281.86-282.59,281.86-67.09,0-128.7-23.31-177.17-62.26v204.02c-38-15.54-73.4-36.02-105.42-60.66v-362.96c0-20.87,2.27-41.2,6.59-60.76,27.85-126.45,140.86-221.1,276-221.1,156.07,0,282.59,126.2,282.59,281.86Z"/>
<path class="uuid-10f4b889-4a6d-4d7c-9465-2fa988e86763" d="m571.95,431.87c13.7-4.93,31.78-3.5,44.67,8.61,14.27,13.41,13.61,31.86,13.48,34.43-1.07,20.41-15.67,31.87-17.72,33.42-9.85-11.11-20.88-22.69-33.19-34.43-9.78-9.33-19.4-17.83-28.7-25.57,2.78-3.84,9.64-12.21,21.46-16.46Z"/>
<path class="uuid-10f4b889-4a6d-4d7c-9465-2fa988e86763" d="m337.44,431.87c-13.7-4.93-31.78-3.5-44.67,8.61-14.27,13.41-13.61,31.86-13.48,34.43,1.07,20.41,15.67,31.87,17.72,33.42,9.85-11.11,20.88-22.69,33.19-34.43,9.78-9.33,19.4-17.83,28.7-25.57-2.78-3.84-9.64-12.21-21.46-16.46Z"/>
<path class="uuid-eb820bde-c831-4126-941d-fe9b9610000d" d="m648.54,633.84c0,10.47-.71,20.77-2.07,30.8-1.12,8.38-2.72,16.59-4.74,24.6-8.09,23.91-25.98,45.31-50.68,62.17-34.94,23.88-83.47,38.67-137.15,38.67s-100.06-14.16-134.81-37.11c-28.01-18.48-47.67-42.69-54.86-69.8-.01-.04-.03-.1-.04-.14-.84-3.8-1.6-7.66-2.25-11.55-2.05-12.2-3.11-24.77-3.11-37.63,0-69.52,31.25-130.9,78.96-167.63,30.99-27.95,71.62-44.89,116.11-44.89s85.2,16.98,116.19,44.96c.01.01.04.03.06.04,47.37,36.77,78.39,98.09,78.39,167.52Z"/>
<path class="uuid-be15bf49-f47f-412f-a49e-bd9d44cd29ef" d="m538.76,442.44c2.06-3.08,15.93-23.08,41.43-25.95,22.57-2.55,46.11,8.68,56.9,29.45,12.4,23.87,5.29,55.04-17.97,72.87"/>
<path class="uuid-be15bf49-f47f-412f-a49e-bd9d44cd29ef" d="m370.4,442.44c-2.06-3.08-15.93-23.08-41.43-25.95-22.57-2.55-46.11,8.68-56.9,29.45-12.4,23.87-5.29,55.04,17.97,72.87"/>
<path class="uuid-60e42287-8c6d-47bd-9907-e28cb2e543cf" d="m392.02,631.61c-18.21,31.02-44.17,38.93-67.32,24.83-18.03-10.99-31.91-38.73-16.54-71.25,19.47-41.18,54.8-59.81,78.15-47.41,24.42,12.97,25.92,59.39,5.7,93.83Z"/>
<path class="uuid-60e42287-8c6d-47bd-9907-e28cb2e543cf" d="m514.94,631.61c18.21,31.02,44.17,38.93,67.32,24.83-18.03-10.99,31.91-38.73,16.54-71.25-19.47-41.18-54.8-59.81-78.15-47.41-24.42,12.97-25.92,59.39-5.7,93.83Z"/>
<path class="uuid-51eaa23c-1a65-4043-84e0-3cb0ba58de8e" d="m482.11,710.72c3.53-4.48,7.27-12.31,7.74-21.46.21-4.01-.26-7.37-.75-9.73-3.75.56-9.3.91-15.72-.5-11.46-2.51-18.84-9.07-21.96-12.23-1.97,2.82-7.74,10.26-18.22,13.73-6.47,2.14-12.14,1.91-15.47,1.5-.54,2.48-1.08,6.12-.75,10.48.67,8.81,4.57,16.74,8.98,21.46,13.48,14.42,44.02,12.15,56.15-3.24Z"/>
<path class="uuid-3c2511c6-d4a3-442d-bffb-f4ca7730c535" d="m427.2,631.61h50.16s1.35,15.05-3.74,22.46c-6.74,9.81-30.15,14.08-41.37,1.31-7.99-9.1-5.45-21.91-5.05-23.77Z"/>
<path class="uuid-f754ac35-97c8-4154-afec-45aabab21233" d="m398.57,673.35c2.07,1.42,14.94,9.95,31.45,5.99,13.49-3.23,20.77-12.73,22.65-15.35"/>
<path class="uuid-f754ac35-97c8-4154-afec-45aabab21233" d="m503.98,673.35c-2.07,1.42-14.94,9.95-31.45,5.99-13.49-3.23-20.77-12.73-22.65-15.35"/>
<ellipse class="uuid-b805d9f0-2387-4c15-a210-cc6552dcdd7d" cx="536.84" cy="585.63" rx="19.97" ry="25.5" transform="translate(-168.96 220.93) rotate(-20.16)"/>
<ellipse class="uuid-b805d9f0-2387-4c15-a210-cc6552dcdd7d" cx="371.16" cy="585.63" rx="25.5" ry="19.97" transform="translate(-306.52 732.18) rotate(-69.84)"/>
<path class="uuid-1b1daa95-a8b7-4ec9-83f6-4aee720dc47f" d="m430.2,702.24c12.64-11.07,34.27-9.28,47.42-.25,2.99,2.05,5.83,4.06,5.99,7.01.38,6.86-13.94,14.62-26.95,15.71-14.58,1.22-31.62-5.6-32.19-13.5-.27-3.7,3.15-6.69,5.74-8.97Z"/>
</svg>
